<?xml version="1.0" standalone="no"?>
<!DOCTYPE svg PUBLIC "-//W3C//DTD SVG 20010904//EN"
 "http://www.w3.org/TR/2001/REC-SVG-20010904/DTD/svg10.dtd">
<svg version="1.0" xmlns="http://www.w3.org/2000/svg"
 width="1365.000000pt" height="1365.000000pt" viewBox="0 0 1365.000000 1365.000000"
 preserveAspectRatio="xMidYMid meet">
<metadata>
Created by potrace 1.14, written by Peter Selinger 2001-2017
</metadata>
<g transform="translate(0.000000,1365.000000) scale(0.100000,-0.100000)"
fill="#000000" stroke="none">
<path d="M3809 10935 c-4 -3 -29 -9 -85 -19 -7 -1 -45 -18 -86 -38 -84 -42
-171 -113 -214 -175 -16 -24 -32 -43 -36 -43 -5 0 -8 -4 -8 -9 0 -5 -12 -35
-27 -67 -15 -33 -29 -66 -30 -74 -11 -55 -26 -151 -25 -165 2 -22 3 -181 2
-190 -1 -5 -1 -28 -1 -50 2 -67 0 -139 -4 -143 -2 -2 0 -15 5 -28 5 -13 6 -24
2 -24 -5 0 -7 -17 -5 -37 7 -67 7 -113 0 -119 -3 -4 -2 -15 4 -25 5 -11 6 -19
1 -19 -6 0 1 -126 12 -180 6 -36 20 -76 29 -87 5 -7 7 -13 3 -13 -3 0 6 -22
21 -50 15 -27 31 -50 35 -50 4 0 8 -6 8 -14 0 -15 90 -110 136 -142 46 -33
123 -74 139 -74 8 0 15 -4 15 -8 0 -7 27 -13 73 -15 9 -1 17 -5 17 -9 0 -4
204 -8 453 -7 438 0 454 1 517 22 36 12 67 24 70 27 3 3 28 16 55 29 66 33
192 162 228 234 16 31 28 59 28 62 0 2 7 21 15 41 25 59 27 111 27 539 -1 391
-4 459 -24 496 -4 9 -5 19 -2 23 3 3 1 6 -6 6 -7 0 -10 3 -8 8 5 7 -3 24 -48
111 -23 44 -142 163 -186 186 -107 56 -135 69 -153 72 -41 5 -56 9 -62 16 -7
7 -878 9 -885 2z"/>
<path d="M6127 10614 c-3 -4 -36 -8 -74 -10 -85 -4 -87 -4 -147 -34 -64 -32
-126 -105 -151 -177 -19 -54 -20 -81 -19 -408 1 -351 4 -394 31 -450 23 -46
83 -115 99 -115 8 0 14 -4 14 -9 0 -7 47 -31 75 -38 6 -1 26 -6 45 -11 19 -4
190 -8 380 -7 365 1 387 4 460 50 49 32 125 120 129 150 1 6 6 27 12 47 11 42
8 736 -4 778 -32 116 -156 216 -275 222 -29 2 -52 7 -52 12 0 5 -6 3 -13 -3
-8 -6 -16 -8 -20 -5 -7 8 -77 11 -77 4 0 -3 -9 -6 -20 -6 -11 0 -20 4 -20 8 0
5 -8 4 -18 -1 -13 -7 -23 -6 -30 1 -7 7 -12 8 -12 2 0 -5 -16 -9 -35 -9 -19 0
-35 4 -35 9 0 6 -5 5 -12 -2 -7 -7 -17 -8 -30 -1 -10 5 -18 6 -18 1 0 -4 -9
-8 -20 -8 -11 0 -20 4 -20 9 0 4 -6 5 -12 0 -19 -11 -68 -10 -68 1 0 6 -5 5
-12 -2 -7 -7 -17 -8 -28 -2 -10 5 -20 7 -23 4z"/>
<path d="M2007 10143 c-1 -1 -22 -4 -47 -8 -25 -4 -64 -16 -88 -26 -70 -32
-156 -129 -165 -186 -1 -10 -6 -23 -10 -30 -4 -6 -6 -184 -5 -395 l3 -383 27
-47 c15 -26 40 -61 55 -78 36 -40 118 -87 168 -95 40 -6 707 -8 735 -1 79 17
134 48 182 101 29 31 69 106 75 140 6 33 7 707 1 750 -3 22 -17 60 -29 84 -26
48 -125 144 -140 135 -5 -3 -9 -1 -9 4 0 8 -29 17 -85 28 -5 1 -12 2 -15 3 -7
2 -651 6 -653 4z"/>
<path d="M5550 8906 c-85 -31 -168 -79 -226 -133 -74 -66 -152 -200 -169 -288
-5 -22 -10 -47 -12 -55 -8 -28 -9 -1125 -1 -1147 5 -15 4 -23 -3 -23 -8 0 -7
-5 1 -15 7 -8 10 -15 7 -15 -3 0 -1 -15 4 -32 6 -18 12 -42 14 -52 19 -84 110
-212 211 -295 36 -29 162 -91 186 -91 9 0 19 -4 22 -8 6 -10 58 -15 153 -16
40 -1 73 -4 73 -8 0 -4 12 -3 28 0 34 9 54 9 70 -1 6 -5 12 -4 12 0 0 5 15 8
33 6 17 -2 39 -4 47 -3 8 0 40 0 70 0 30 -1 60 -1 65 -1 6 0 34 2 63 3 28 2
52 1 52 -3 0 -4 16 -3 36 1 19 5 48 5 63 0 16 -4 34 -4 41 0 7 4 25 4 41 0 15
-5 30 -6 33 -3 3 3 26 5 51 4 25 -1 51 -1 58 -2 6 0 38 1 70 3 32 2 61 0 64
-4 2 -5 8 -6 13 -3 5 3 37 7 72 10 35 2 78 8 96 14 18 5 33 10 35 10 3 0 56
19 77 28 8 3 18 5 23 5 4 -1 7 2 7 8 0 5 6 10 13 10 8 0 22 9 32 20 10 11 22
20 27 20 24 0 155 146 156 174 0 5 4 12 9 15 23 15 75 163 67 186 -4 8 -2 15
3 15 11 0 12 1199 1 1216 -4 6 -10 26 -13 44 -7 40 -57 142 -92 190 -37 50
-119 130 -132 130 -6 0 -11 5 -11 10 0 6 -5 10 -11 10 -6 0 -23 8 -37 18 -33
23 -107 53 -147 59 -16 3 -34 9 -40 13 -5 4 -282 8 -615 8 l-605 -1 -85 -31z"/>
<path d="M8025 8668 c-89 -19 -180 -91 -215 -171 -12 -28 -26 -59 -30 -67 -11
-23 -10 -715 2 -758 17 -70 80 -172 105 -172 7 0 13 -4 13 -10 0 -13 107 -63
119 -56 5 4 12 3 15 -2 4 -8 726 -8 756 0 35 9 107 50 137 77 28 25 78 107 93
151 8 23 10 752 2 764 -3 6 -8 19 -9 28 -8 49 -73 134 -133 173 -73 46 -95 49
-467 49 -193 1 -368 -2 -388 -6z"/>
<path d="M2766 8532 c-2 -2 -19 -6 -38 -9 -18 -3 -51 -12 -73 -20 -22 -8 -50
-17 -62 -20 -13 -3 -23 -9 -23 -13 0 -5 -10 -12 -22 -16 -32 -9 -168 -123
-168 -139 0 -3 -8 -15 -19 -26 -32 -35 -89 -161 -103 -230 -10 -52 -13 -227
-12 -805 0 -736 4 -832 35 -870 6 -7 11 -21 14 -32 2 -11 15 -38 29 -61 15
-23 24 -41 22 -41 -2 0 21 -28 52 -61 86 -93 216 -169 316 -186 16 -3 40 -9
52 -13 14 -6 26 -5 29 1 4 5 12 6 18 2 16 -10 1358 -10 1364 1 3 4 8 4 12 -2
15 -24 229 28 303 75 21 12 40 23 44 23 3 0 11 6 19 13 7 7 26 24 41 38 38 32
118 129 107 129 -4 0 -3 4 3 8 23 15 64 110 67 155 1 9 4 17 7 17 4 0 7 6 8
13 2 14 13 275 12 297 -5 216 -4 277 3 288 5 6 6 12 1 12 -11 0 -11 131 0 148
4 7 3 12 -3 12 -7 0 -7 8 -1 25 5 14 6 25 2 25 -4 0 -7 38 -7 85 0 47 4 85 9
85 5 0 4 6 -1 13 -7 9 -8 119 -3 262 0 6 -1 84 -3 175 -3 121 -8 175 -20 203
-9 20 -13 37 -10 37 3 0 1 6 -5 13 -6 6 -10 16 -10 20 -1 25 -80 143 -128 192
-55 55 -143 117 -173 122 -7 1 -18 6 -24 12 -6 6 -19 11 -29 11 -10 0 -18 3
-18 8 0 4 -14 8 -32 9 -17 1 -35 8 -38 14 -6 8 -9 8 -14 0 -4 -6 -13 -8 -19
-4 -12 8 -1504 13 -1511 5z"/>
<path d="M584 8072 c-39 -6 -110 -36 -144 -61 -53 -40 -67 -57 -97 -113 l-28
-53 0 -585 c0 -322 3 -595 7 -608 29 -97 144 -194 247 -210 46 -7 1075 -7
1122 0 86 13 186 92 230 183 24 50 24 53 24 362 0 172 3 313 7 313 4 0 5 6 3
13 -10 29 -13 67 -5 67 5 0 7 6 5 13 -10 29 -13 67 -5 67 5 0 7 6 5 13 -10 29
-13 67 -5 67 5 0 7 6 5 13 -10 29 -13 67 -5 67 5 0 7 6 5 13 -11 30 -13 67 -4
67 6 0 8 4 5 9 -3 5 -7 31 -10 57 -5 65 -23 130 -41 148 -8 8 -15 17 -15 21 0
4 -17 24 -37 45 -42 42 -109 79 -157 87 -33 5 -1078 10 -1112 5z"/>
<path d="M7320 6174 c-190 -34 -349 -126 -447 -257 -61 -83 -115 -200 -129
-284 -3 -15 -7 -35 -9 -43 -21 -75 -25 -264 -8 -387 24 -178 90 -325 200 -443
151 -164 330 -223 643 -216 239 6 366 52 496 181 78 77 131 163 169 276 26 74
26 99 3 99 -7 0 -101 27 -208 60 -193 59 -207 61 -211 25 -4 -53 -65 -169
-106 -206 -54 -47 -98 -62 -188 -64 -167 -5 -259 69 -297 238 -26 118 -20 366
11 452 46 129 138 201 269 212 122 9 234 -55 284 -164 12 -27 22 -49 23 -50 1
-2 42 6 91 17 49 11 134 30 189 41 55 12 112 25 127 28 l28 6 -34 78 c-127
292 -334 415 -696 414 -69 0 -159 -6 -200 -13z"/>
<path d="M5110 5365 l0 -795 248 0 247 0 -1 295 0 295 188 0 c103 0 189 0 191
0 1 1 42 10 90 20 259 57 392 235 383 515 -7 245 -129 400 -356 451 -19 4
-250 9 -512 11 l-478 4 0 -796z m759 456 c65 -24 102 -74 107 -147 7 -80 -21
-129 -91 -164 -41 -20 -67 -25 -165 -28 l-116 -4 0 181 1 182 110 -2 c74 -1
124 -7 154 -18z"/>
<path d="M8555 5368 l0 -793 95 -5 c52 -3 163 -4 246 -2 l150 3 0 319 -1 320
270 0 270 -1 -2 -319 -2 -320 248 0 247 0 0 795 0 795 -247 0 -247 0 -1 -237
c0 -131 0 -257 0 -280 l-1 -43 -264 0 c-202 0 -265 3 -268 13 -2 6 -3 132 -3
280 l1 267 -246 0 -246 0 1 -792z"/>
<path d="M10460 5365 l0 -795 247 2 247 3 0 293 0 292 181 1 c185 2 192 2 260
13 195 32 327 137 386 307 25 74 34 230 18 319 -25 131 -109 244 -223 300
-112 55 -155 59 -658 60 l-458 0 0 -795z m754 458 c81 -28 121 -93 113 -180
-11 -113 -85 -158 -266 -162 l-107 -2 0 181 0 181 110 -2 c65 -1 127 -7 150
-16z"/>
<path d="M12124 5368 l1 -793 628 -3 627 -2 0 195 0 195 -383 0 -383 0 1 588
c0 323 -1 593 -3 600 -3 9 -61 12 -247 12 l-243 0 2 -792z"/>
<path d="M1320 6023 c-110 -28 -203 -127 -227 -243 -3 -14 -5 -185 -5 -380 0
-315 2 -360 17 -400 36 -91 103 -159 189 -191 59 -23 71 -24 406 -24 190 -1
361 3 380 7 19 5 43 11 54 13 55 13 153 103 179 165 11 27 12 32 22 70 9 33
12 711 3 716 -3 2 -5 15 -3 29 1 14 -2 28 -7 31 -4 3 -6 10 -3 15 4 5 3 9 -2
9 -4 0 -14 13 -21 29 -27 60 -105 127 -177 152 -57 19 -731 21 -805 2z"/>
<path d="M3157 5428 c-6 -3 -14 -5 -19 -2 -7 5 -108 -43 -118 -55 -3 -4 -18
-17 -34 -29 -16 -12 -25 -22 -21 -22 4 0 -4 -15 -17 -32 -24 -32 -33 -51 -44
-100 -10 -40 -10 -700 0 -753 5 -27 15 -57 22 -65 7 -8 13 -19 13 -25 1 -5 8
-18 16 -28 8 -9 15 -21 15 -26 0 -6 9 -13 20 -16 11 -3 20 -10 20 -14 0 -10
91 -60 116 -64 10 -1 24 -5 29 -8 16 -9 716 -4 755 5 63 15 125 57 179 122 16
20 41 73 41 89 0 8 4 15 9 15 6 0 9 156 9 378 0 363 -1 379 -21 433 -34 88
-112 163 -198 190 -38 13 -753 19 -772 7z"/>
<path d="M5090 4095 c0 -128 1 -135 20 -135 17 0 20 7 20 50 l0 50 43 1 c23 1
45 1 48 1 4 -1 17 10 29 23 31 33 31 87 0 120 -21 22 -32 25 -92 25 l-68 0 0
-135z m134 80 c17 -17 13 -54 -6 -67 -7 -4 -30 -8 -50 -8 l-38 0 0 45 0 45 39
0 c22 0 46 -7 55 -15z"/>
<path d="M5847 4210 c3 -12 12 -20 22 -18 24 5 19 33 -6 36 -17 3 -20 -1 -16
-18z"/>
<path d="M6060 4185 c0 -43 -1 -45 -21 -35 -29 16 -77 3 -85 -23 -4 -12 -8
-44 -9 -72 -1 -39 3 -54 21 -72 25 -25 63 -30 82 -11 9 9 12 9 12 0 0 -7 9
-12 20 -12 19 0 20 7 20 135 0 128 -1 135 -20 135 -17 0 -20 -7 -20 -45z m-12
-77 c7 -7 12 -28 12 -48 0 -39 -14 -60 -41 -60 -21 0 -26 7 -33 44 -10 57 29
97 62 64z"/>
<path d="M7093 4220 c-40 -16 -54 -52 -52 -131 2 -66 5 -77 30 -102 38 -37 97
-36 135 4 14 15 23 32 20 37 -8 13 -42 4 -57 -14 -17 -21 -56 -17 -73 8 -23
33 -21 130 2 151 25 23 55 21 77 -3 19 -21 55 -27 55 -9 0 6 -13 24 -29 40
-30 30 -65 36 -108 19z"/>
<path d="M7466 4104 c1 -131 5 -143 47 -144 20 0 24 36 5 42 -9 3 -13 36 -13
114 0 102 -1 109 -20 112 -20 3 -21 -2 -19 -124z"/>
<path d="M7577 4223 c-2 -5 -3 -58 -3 -119 2 -117 10 -144 47 -144 22 0 25 25
6 45 -10 9 -13 43 -13 119 1 94 -1 106 -16 106 -9 0 -19 -3 -21 -7z"/>
<path d="M8390 4095 c0 -128 1 -135 20 -135 18 0 20 7 20 61 l0 60 53 -3 52
-3 0 -57 c0 -52 2 -58 21 -58 20 0 21 4 20 135 -1 122 -3 135 -18 135 -19 0
-21 -10 -19 -72 l1 -38 -55 0 -55 0 0 55 c0 48 -2 55 -20 55 -19 0 -20 -7 -20
-135z"/>
<path d="M9710 4095 c0 -128 1 -135 20 -135 17 0 20 7 20 50 l0 50 44 0 c60 0
97 31 99 83 1 26 -6 44 -23 62 -21 22 -32 25 -92 25 l-68 0 0 -135z m135 79
c10 -10 13 -24 9 -38 -9 -28 -22 -36 -66 -36 l-38 0 0 45 0 45 39 0 c23 0 46
-7 56 -16z"/>
<path d="M10489 4228 c-1 -2 -2 -63 -3 -135 -1 -121 0 -133 16 -133 20 0 20 0
22 84 1 66 20 91 54 70 13 -9 18 -28 20 -83 3 -62 5 -71 22 -71 18 0 19 7 19
72 -1 39 -6 82 -12 95 -12 28 -50 40 -81 25 -22 -10 -23 -8 -22 31 1 32 -3 42
-16 45 -10 2 -19 2 -19 0z"/>
<path d="M11105 4098 c0 -126 1 -133 20 -133 17 0 20 7 20 65 0 71 7 90 34 90
31 0 41 -22 41 -92 0 -61 2 -68 20 -68 18 0 20 7 20 68 0 86 -6 107 -36 123
-19 10 -32 10 -53 3 -27 -11 -27 -10 -27 30 1 34 -3 42 -19 44 -19 3 -20 -3
-20 -130z"/>
<path d="M11694 4213 c2 -10 11 -18 21 -18 10 0 19 8 21 18 1 12 -5 17 -21 17
-16 0 -22 -5 -21 -17z"/>
<path d="M11997 4223 c-2 -5 -3 -58 -3 -119 1 -117 10 -144 47 -144 22 0 26
35 6 43 -10 4 -13 33 -13 116 1 98 -1 111 -16 111 -9 0 -19 -3 -21 -7z"/>
<path d="M12790 4095 l0 -135 85 0 c78 0 85 2 85 20 0 18 -7 20 -65 20 l-65 0
0 115 c0 108 -1 115 -20 115 -19 0 -20 -7 -20 -135z"/>
<path d="M13208 4223 c-3 -4 -4 -64 -4 -133 1 -110 3 -125 19 -128 9 -2 17 2
17 9 0 10 3 10 12 1 18 -18 62 -14 86 8 17 16 21 31 20 77 -1 32 -5 66 -9 75
-11 21 -62 32 -87 19 -19 -10 -20 -8 -19 31 2 33 -2 43 -15 46 -9 2 -18 -1
-20 -5z m100 -115 c7 -7 12 -28 12 -48 0 -40 -14 -60 -42 -60 -31 0 -46 72
-23 110 8 14 38 13 53 -2z"/>
<path d="M5319 4155 c-1 0 -2 -42 -3 -94 -1 -71 2 -95 12 -99 21 -8 28 12 27
78 -2 65 11 86 45 77 21 -5 45 16 36 32 -5 7 -102 12 -117 6z"/>
<path d="M5493 4148 c-66 -32 -38 -188 33 -188 62 0 93 40 88 114 -5 70 -60
103 -121 74z m77 -52 c8 -23 5 -69 -6 -88 -3 -4 -15 -8 -28 -8 -28 0 -47 37
-40 76 7 39 12 44 40 44 17 0 27 -8 34 -24z"/>
<path d="M5640 4158 c0 -10 57 -165 67 -182 15 -27 40 -14 48 25 4 19 11 40
16 49 9 19 39 98 39 106 0 3 -10 4 -21 2 -20 -3 -40 -44 -53 -108 -6 -29 -21
-10 -36 47 -13 46 -21 59 -38 61 -12 2 -22 2 -22 0z"/>
<path d="M5849 4158 c-1 -2 -2 -47 -3 -101 -1 -92 0 -98 19 -95 18 3 20 11 20
98 0 82 -3 95 -18 98 -9 2 -18 2 -18 0z"/>
<path d="M6182 4145 c-44 -32 -45 -132 -1 -167 28 -24 81 -23 103 1 15 16 15
19 1 24 -8 4 -28 4 -43 1 -20 -4 -34 0 -47 13 -18 17 -17 18 46 23 l64 5 -3
35 c-4 64 -70 99 -120 65z m76 -50 c11 -25 11 -25 -33 -25 -44 0 -44 0 -33 25
7 16 19 25 33 25 14 0 26 -9 33 -25z"/>
<path d="M6359 4155 c-1 0 -2 -39 -3 -88 -2 -92 3 -113 26 -105 10 4 13 22 12
64 -2 66 8 94 34 94 32 0 42 -22 42 -92 0 -61 2 -68 20 -68 18 0 20 7 20 78 0
102 -15 121 -95 119 -30 -1 -56 -1 -56 -2z"/>
<path d="M6593 4148 c-58 -28 -55 -150 4 -177 32 -15 48 -14 84 4 23 13 27 18
17 29 -9 10 -19 10 -40 2 -20 -7 -34 -7 -46 0 -20 13 -27 65 -12 94 11 21 49
27 66 11 5 -6 16 -5 27 4 17 12 17 14 -5 29 -25 18 -63 20 -95 4z"/>
<path d="M6777 4149 c-23 -13 -47 -68 -42 -95 2 -10 4 -25 4 -32 2 -24 49 -62
78 -62 37 0 81 29 62 41 -8 5 -28 6 -45 3 -22 -4 -36 0 -49 13 -18 17 -17 18
46 23 69 5 69 5 54 76 -8 36 -71 55 -108 33z m71 -56 c3 -21 -1 -23 -37 -23
-34 0 -39 3 -34 18 15 39 66 42 71 5z"/>
<path d="M7282 4140 c-26 -24 -32 -67 -20 -126 12 -54 88 -72 128 -29 33 35
33 115 0 150 -29 31 -77 33 -108 5z m88 -44 c8 -23 5 -69 -6 -88 -3 -4 -15 -8
-28 -8 -28 0 -47 37 -40 76 7 39 12 44 40 44 17 0 27 -8 34 -24z"/>
<path d="M7705 4138 c-45 -40 -37 -140 14 -168 28 -14 63 -12 89 6 17 12 19
18 10 28 -9 9 -17 10 -29 3 -20 -13 -65 -2 -73 18 -4 12 5 15 54 15 63 0 65 2
61 55 -3 27 -47 65 -76 65 -13 0 -35 -10 -50 -22z m83 -43 c11 -25 11 -25 -34
-25 -25 0 -43 3 -41 8 2 4 7 15 10 25 10 26 52 22 65 -8z"/>
<path d="M7900 4140 c-25 -25 -30 -112 -9 -152 13 -24 55 -33 85 -19 24 10 25
10 18 -11 -11 -36 -47 -50 -69 -29 -6 6 -17 5 -28 -4 -18 -13 -18 -14 6 -29
32 -22 83 -17 108 10 17 18 20 35 20 125 1 135 2 129 -22 129 -12 0 -17 -4
-13 -11 5 -8 1 -8 -14 0 -31 16 -60 13 -82 -9z m88 -74 c4 -56 -6 -71 -42 -62
-20 5 -25 13 -28 44 -4 49 10 73 42 70 22 -3 25 -8 28 -52z"/>
<path d="M8117 4149 c-42 -25 -55 -105 -23 -153 25 -39 84 -47 120 -17 24 20
9 32 -33 25 -29 -5 -42 -2 -56 12 -18 19 -17 19 42 22 69 3 80 17 58 70 -20
47 -67 65 -108 41z m71 -54 c11 -25 11 -25 -33 -25 -44 0 -44 0 -33 25 7 16
19 25 33 25 14 0 26 -9 33 -25z"/>
<path d="M8649 4158 c0 -2 -2 -37 -3 -78 -2 -66 1 -78 21 -97 24 -25 44 -28
74 -13 13 7 19 7 19 0 0 -5 9 -10 20 -10 19 0 20 7 20 100 0 93 -1 100 -20
100 -18 0 -20 -7 -20 -68 0 -70 -10 -92 -41 -92 -26 0 -32 17 -34 89 -1 53 -4
67 -18 69 -9 2 -17 2 -18 0z"/>
<path d="M8855 4062 c0 -89 2 -97 20 -100 19 -3 20 3 21 68 1 79 10 96 48 86
25 -6 26 -10 27 -74 1 -37 1 -70 0 -74 0 -5 8 -8 19 -8 18 0 20 7 20 68 0 70
10 92 42 92 22 0 37 -28 36 -66 -2 -78 2 -94 20 -94 17 0 18 9 18 79 -1 63 -5
83 -21 101 -20 22 -67 26 -92 7 -7 -5 -19 -4 -30 1 -10 5 -43 10 -73 10 l-55
0 0 -96z"/>
<path d="M9213 4150 c-25 -10 -31 -29 -10 -31 6 -1 28 -1 48 0 26 2 38 -2 43
-14 10 -26 -2 -35 -43 -35 -64 0 -97 -63 -48 -94 21 -14 126 -20 128 -7 0 3 2
37 3 75 1 54 -2 74 -17 92 -20 25 -62 31 -104 14z m87 -114 c0 -23 -17 -36
-46 -36 -32 0 -45 16 -27 33 7 8 73 10 73 3z"/>
<path d="M9397 4153 c-2 -5 -3 -48 -3 -98 1 -82 3 -90 21 -90 17 0 19 8 19 69
1 54 5 71 19 80 12 8 22 8 35 0 13 -9 18 -28 20 -83 3 -63 5 -71 22 -71 18 0
20 7 20 80 0 69 -3 82 -22 100 -24 22 -49 25 -80 9 -15 -8 -19 -8 -14 0 4 7
-1 11 -13 11 -11 0 -21 -3 -24 -7z"/>
<path d="M9946 4137 c-40 -40 -18 -86 43 -91 35 -2 57 -19 47 -35 -9 -14 -52
-14 -78 0 -15 8 -23 8 -32 -1 -16 -16 28 -50 65 -50 37 0 77 19 84 40 6 19
-10 70 -22 71 -76 8 -94 15 -86 35 5 13 15 15 49 10 26 -3 46 -1 50 5 10 17
-10 30 -54 36 -34 5 -44 1 -66 -20z"/>
<path d="M10110 4156 c0 -2 15 -46 33 -97 27 -74 32 -99 24 -117 -6 -12 -16
-22 -24 -22 -7 0 -13 -9 -13 -20 0 -21 24 -27 47 -12 9 5 103 252 103 269 0 2
-9 3 -20 3 -20 0 -29 -11 -34 -42 -9 -54 -39 -105 -41 -70 -1 4 -9 31 -19 60
-13 38 -23 52 -37 52 -10 0 -19 -2 -19 -4z"/>
<path d="M10334 4149 c-27 -14 -44 -50 -44 -95 0 -26 8 -44 30 -66 26 -26 36
-30 66 -25 20 3 42 11 50 18 12 10 12 14 -3 25 -11 8 -22 9 -27 3 -17 -16 -55
-10 -66 10 -5 11 -10 34 -10 51 0 37 39 62 69 43 24 -15 58 8 37 26 -20 17
-77 22 -102 10z"/>
<path d="M10727 4146 c-40 -31 -42 -123 -4 -163 35 -39 108 -23 125 26 13 39
3 103 -21 129 -23 25 -72 29 -100 8z m77 -34 c25 -41 9 -112 -26 -112 -38 0
-55 51 -35 104 7 16 52 23 61 8z"/>
<path d="M10906 4150 c-2 -5 0 -247 3 -262 2 -13 29 -9 33 5 2 6 3 29 2 49 -1
35 0 36 21 26 35 -16 74 -2 86 30 16 42 6 130 -17 146 -18 14 -122 19 -128 6z
m102 -42 c7 -7 12 -28 12 -48 0 -39 -14 -60 -41 -60 -21 0 -26 7 -33 44 -10
57 29 97 62 64z"/>
<path d="M11300 4157 c0 -7 58 -169 62 -173 11 -11 -6 -57 -23 -61 -25 -7 -25
-43 -1 -43 31 0 47 29 91 154 22 66 41 121 41 123 0 3 -10 3 -21 1 -20 -3 -39
-42 -53 -105 -6 -31 -16 -20 -36 41 -17 51 -26 66 -41 66 -10 0 -19 -1 -19 -3z"/>
<path d="M11503 4136 c-36 -45 -14 -81 53 -92 46 -7 48 -8 41 -29 -7 -17 -49
-20 -79 -4 -29 16 -48 -5 -26 -28 26 -25 101 -26 127 -2 24 22 25 28 11 63 -7
18 -19 27 -47 31 -57 10 -63 13 -57 30 7 17 46 20 74 5 14 -7 20 -6 24 7 9 24
-6 35 -57 40 -38 5 -46 2 -64 -21z"/>
<path d="M11699 4150 c-1 -5 -2 -50 -3 -100 -1 -77 1 -90 15 -90 9 0 19 6 21
13 3 10 3 156 -1 180 -2 11 -31 9 -32 -3z"/>
<path d="M11823 4148 c-47 -22 -52 -128 -8 -165 34 -29 67 -29 102 1 24 20 27
31 27 75 -2 83 -54 121 -121 89z m72 -45 c23 -53 5 -103 -36 -103 -32 0 -47
73 -23 112 9 15 52 8 59 -9z"/>
<path d="M12123 4148 c-24 -11 -40 -49 -37 -85 1 -13 2 -32 3 -42 3 -44 62
-71 111 -51 34 14 48 49 44 104 -6 70 -60 103 -121 74z m71 -44 c16 -15 16
-70 1 -94 -12 -20 -55 -11 -65 14 -24 64 22 122 64 80z"/>
<path d="M12312 4144 c-19 -13 -22 -24 -22 -80 0 -51 4 -68 20 -84 22 -22 60
-26 78 -8 9 9 12 6 12 -14 0 -29 -26 -44 -60 -33 -11 3 -27 2 -36 -3 -15 -8
-14 -11 7 -26 47 -33 104 -13 125 44 7 19 11 167 5 213 -1 4 -10 7 -22 7 -12
0 -17 -4 -13 -11 5 -8 1 -8 -14 0 -29 15 -54 14 -80 -5z m75 -32 c12 -7 18
-44 14 -83 -1 -20 -27 -32 -52 -24 -15 5 -19 16 -19 54 0 26 3 51 7 54 9 9 35
9 50 -1z"/>
<path d="M12480 4156 c0 -2 15 -46 34 -97 26 -74 31 -99 23 -116 -5 -13 -16
-23 -24 -23 -7 0 -13 -9 -13 -20 0 -25 31 -27 52 -2 9 9 33 67 53 127 21 61
40 116 43 123 3 10 -2 13 -18 10 -19 -2 -27 -15 -43 -66 -10 -35 -22 -60 -26
-55 -4 4 -15 34 -25 66 -13 44 -21 57 -37 57 -10 0 -19 -2 -19 -4z"/>
<path d="M13023 4150 c-15 -6 -21 -15 -17 -25 5 -11 15 -13 44 -9 26 4 40 2
46 -7 19 -31 12 -39 -30 -39 -47 0 -76 -22 -76 -57 0 -37 31 -53 96 -51 l59 3
0 70 c1 91 -2 100 -31 114 -29 13 -60 13 -91 1z m87 -114 c0 -21 -17 -36 -40
-36 -30 0 -45 13 -35 30 6 9 75 15 75 6z"/>
</g>
</svg>
